<svg width="22" height="21" viewBox="0 0 22 21" fill="none" xmlns="http://www.w3.org/2000/svg">
<g clip-path="url(#clip0_42_617)">
<path d="M7.81555 0.690692C5.71732 1.41859 3.90781 2.80015 2.65281 4.63246C1.39781 6.46477 0.763469 8.65124 0.842959 10.8707C0.922448 13.0902 1.71158 15.2257 3.09444 16.9635C4.47731 18.7013 6.38101 19.9499 8.52594 20.5258C10.2649 20.9746 12.0868 20.9943 13.835 20.5833C15.4187 20.2275 16.8829 19.4666 18.0842 18.375C19.3345 17.2042 20.242 15.7147 20.7092 14.0667C21.217 12.2746 21.3074 10.39 20.9734 8.55749H11.2084V12.6082H16.8636C16.7506 13.2543 16.5084 13.8709 16.1515 14.4211C15.7946 14.9714 15.3304 15.444 14.7866 15.8107C14.096 16.2675 13.3175 16.5749 12.5012 16.713C11.6824 16.8653 10.8426 16.8653 10.0238 16.713C9.19398 16.5415 8.40896 16.199 7.71875 15.7073C6.60993 14.9224 5.77736 13.8074 5.33984 12.5212C4.89493 11.211 4.89493 9.79059 5.33984 8.48038C5.65128 7.56198 6.16612 6.72579 6.84594 6.03421C7.62391 5.22825 8.60884 4.65214 9.69268 4.3691C10.7765 4.08606 11.9174 4.10702 12.9901 4.42968C13.8281 4.68691 14.5944 5.13636 15.2279 5.74218C15.8655 5.1078 16.5021 4.47179 17.1376 3.83413C17.4657 3.49124 17.8234 3.16475 18.1466 2.81366C17.1795 1.91374 16.0444 1.21349 14.8062 0.753036C12.5515 -0.0656524 10.0845 -0.0876539 7.81555 0.690692Z" fill="white"/>
<path d="M7.81555 0.690696C10.0843 -0.088179 12.5514 -0.0667567 14.8063 0.751399C16.0446 1.21498 17.1792 1.9186 18.1449 2.82187C17.8168 3.17296 17.4706 3.50109 17.1359 3.84234C16.4994 4.47781 15.8634 5.11109 15.2279 5.74218C14.5944 5.13636 13.8281 4.68692 12.9901 4.42968C11.9177 4.10589 10.7769 4.08372 9.69279 4.3656C8.60867 4.64749 7.62313 5.22253 6.8443 6.02765C6.16448 6.71923 5.64964 7.55543 5.33821 8.47382L1.93719 5.84062C3.15455 3.42654 5.26233 1.57995 7.81555 0.690696Z" fill="#E33629"/>
<path d="M1.03485 8.44923C1.21765 7.54327 1.52114 6.66591 1.9372 5.84064L5.33821 8.4804C4.8933 9.79062 4.8933 11.211 5.33821 12.5213C4.20509 13.3963 3.07142 14.2756 1.9372 15.1594C0.895648 13.0862 0.577993 10.724 1.03485 8.44923Z" fill="#F8BD00"/>
<path d="M11.2084 8.55585H20.9734C21.3074 10.3883 21.217 12.273 20.7092 14.0651C20.242 15.713 19.3345 17.2025 18.0842 18.3733C16.9867 17.5169 15.8842 16.6671 14.7866 15.8107C15.3307 15.4436 15.7952 14.9705 16.1521 14.4197C16.509 13.8688 16.751 13.2516 16.8636 12.6049H11.2084C11.2067 11.2563 11.2084 9.90608 11.2084 8.55585Z" fill="#587DBD"/>
<path d="M1.93555 15.1594C3.06977 14.2844 4.20344 13.405 5.33656 12.5212C5.77495 13.8078 6.60871 14.9229 7.71875 15.7073C8.41111 16.1967 9.19782 16.5364 10.0288 16.7048C10.8475 16.8571 11.6873 16.8571 12.5061 16.7048C13.3225 16.5666 14.1009 16.2593 14.7915 15.8025C15.8891 16.6589 16.9916 17.5087 18.0891 18.3651C16.888 19.4574 15.4238 20.2189 13.8399 20.5751C12.0917 20.9861 10.2698 20.9664 8.53086 20.5176C7.15553 20.1504 5.87087 19.5031 4.75742 18.6162C3.5789 17.6805 2.61633 16.5014 1.93555 15.1594Z" fill="#319F43"/>
</g>
<defs>
<clipPath id="clip0_42_617">
<rect width="21" height="21" fill="white" transform="translate(0.5)"/>
</clipPath>
</defs>
</svg>
