<svg width="25" height="24" viewBox="0 0 25 24" fill="none" xmlns="http://www.w3.org/2000/svg">
<path d="M3 12C3 7.52163 3 5.28245 4.39124 3.89121C5.78249 2.49997 8.02166 2.49997 12.5 2.49997C16.9783 2.49997 19.2175 2.49997 20.6088 3.89121C22 5.28245 22 7.52163 22 12C22 16.4783 22 18.7175 20.6088 20.1087C19.2175 21.5 16.9783 21.5 12.5 21.5C8.02166 21.5 5.78249 21.5 4.39124 20.1087C3 18.7175 3 16.4783 3 12Z" stroke="white" stroke-width="1.5"/>
<path d="M7.53613 12.0275H14.5117M14.5117 12.0275C14.5117 12.5979 12.3565 14.5148 12.3565 14.5148M14.5117 12.0275C14.5117 11.4421 12.3565 9.56307 12.3565 9.56307M17.5361 7.99509V15.9951" stroke="white" stroke-width="1.5" stroke-linecap="round"/>
</svg>
