<svg width="31" height="30" viewBox="0 0 31 30" fill="none" xmlns="http://www.w3.org/2000/svg">
<path d="M19.25 12.5C19.25 10.4289 17.5711 8.75 15.5 8.75C13.4289 8.75 11.75 10.4289 11.75 12.5C11.75 14.5711 13.4289 16.25 15.5 16.25C17.5711 16.25 19.25 14.5711 19.25 12.5Z" stroke="#141B34" stroke-width="1.5" stroke-linecap="round" stroke-linejoin="round"/>
<path d="M21.75 22.5C21.75 19.0483 18.9518 16.25 15.5 16.25C12.0482 16.25 9.25 19.0483 9.25 22.5" stroke="#141B34" stroke-width="1.5" stroke-linecap="round" stroke-linejoin="round"/>
<path d="M26.75 16.25V13.75C26.75 9.03595 26.75 6.67894 25.2855 5.21446C23.8211 3.75 21.464 3.75 16.75 3.75H14.25C9.53595 3.75 7.17894 3.75 5.71446 5.21446C4.25 6.67894 4.25 9.03595 4.25 13.75V16.25C4.25 20.964 4.25 23.3211 5.71446 24.7855C7.17894 26.25 9.53595 26.25 14.25 26.25H16.75C21.464 26.25 23.8211 26.25 25.2855 24.7855C26.75 23.3211 26.75 20.964 26.75 16.25Z" stroke="#141B34" stroke-width="1.5" stroke-linecap="square" stroke-linejoin="round"/>
</svg>
