<svg width="31" height="30" viewBox="0 0 31 30" fill="none" xmlns="http://www.w3.org/2000/svg">
<path d="M14.25 26.875H19.25C22.7855 26.875 24.5532 26.875 25.6516 25.7766C26.75 24.6783 26.75 22.9105 26.75 19.375V18.125C26.75 14.5895 26.75 12.8218 25.6516 11.7234C24.5532 10.625 22.7855 10.625 19.25 10.625H4.25V16.875" stroke="#141B34" stroke-width="1.5" stroke-linecap="round" stroke-linejoin="round"/>
<path d="M19.25 10.6229V5.13788C19.25 4.0262 18.3487 3.125 17.2371 3.125C16.917 3.125 16.6015 3.20135 16.3168 3.34772L5.20288 9.06159C4.6178 9.36239 4.25 9.96504 4.25 10.6229" stroke="#141B34" stroke-width="1.5" stroke-linecap="round" stroke-linejoin="round"/>
<path d="M22.375 19.375C22.7201 19.375 23 19.0951 23 18.75C23 18.4049 22.7201 18.125 22.375 18.125M22.375 19.375C22.0299 19.375 21.75 19.0951 21.75 18.75C21.75 18.4049 22.0299 18.125 22.375 18.125M22.375 19.375V18.125" stroke="#141B34" stroke-width="1.5" stroke-linecap="round" stroke-linejoin="round"/>
<path d="M13 22.5H8.625M8.625 22.5H4.25M8.625 22.5V18.125M8.625 22.5V26.875" stroke="#141B34" stroke-width="1.5" stroke-linecap="round" stroke-linejoin="round"/>
</svg>
